<svg width="20" height="19" viewBox="0 0 20 19" fill="none" xmlns="http://www.w3.org/2000/svg">
<g id="Iconly/Bold/Bag">
<path id="Vector" d="M10.4664 12.439L11.4417 11.5691L10.1637 10.4291L9.18834 11.2991V11.7191H9.99552V12.439H10.4664ZM14.1659 7.03912C14.0762 6.95913 13.9837 6.96163 13.8885 7.04662L10.9456 9.67158C10.8503 9.75658 10.8475 9.83908 10.9372 9.91908C11.0269 9.99908 11.1194 9.99658 11.2147 9.91158L14.1575 7.28662C14.2528 7.20162 14.2556 7.11912 14.1659 7.03912ZM14.8386 11.4941V12.919C14.8386 13.514 14.6017 14.0228 14.1281 14.4453C13.6544 14.8678 13.0841 15.079 12.417 15.079H5.42152C4.75448 15.079 4.18414 14.8678 3.71048 14.4453C3.23683 14.0228 3 13.514 3 12.919V6.67913C3 6.08414 3.23683 5.5754 3.71048 5.1529C4.18414 4.73041 4.75448 4.51917 5.42152 4.51917H12.417C12.7702 4.51917 13.0981 4.58166 13.4008 4.70666C13.4849 4.74166 13.5353 4.79916 13.5521 4.87916C13.5689 4.96416 13.5437 5.03666 13.4765 5.09666L13.0645 5.46415C12.986 5.53415 12.8963 5.55415 12.7954 5.52415C12.6665 5.49415 12.5404 5.47915 12.417 5.47915H5.42152C5.05157 5.47915 4.73487 5.59665 4.47141 5.83164C4.20796 6.06664 4.07623 6.34914 4.07623 6.67913V12.919C4.07623 13.249 4.20796 13.5315 4.47141 13.7665C4.73487 14.0015 5.05157 14.119 5.42152 14.119H12.417C12.787 14.119 13.1037 14.0015 13.3672 13.7665C13.6306 13.5315 13.7623 13.249 13.7623 12.919V11.974C13.7623 11.909 13.7876 11.854 13.838 11.809L14.3761 11.3291C14.4602 11.2541 14.5583 11.2366 14.6704 11.2766C14.7825 11.3166 14.8386 11.3891 14.8386 11.4941ZM14.0314 5.95914L16.4529 8.11911L10.8027 13.159H8.38117V10.9991L14.0314 5.95914ZM17.7646 6.94913L16.991 7.63912L14.5695 5.47915L15.343 4.78916C15.5 4.64916 15.6906 4.57916 15.9148 4.57916C16.139 4.57916 16.3296 4.64916 16.4865 4.78916L17.7646 5.92914C17.9215 6.06914 18 6.23914 18 6.43913C18 6.63913 17.9215 6.80913 17.7646 6.94913Z" fill="currentColor"/>
</g>
</svg>
