<svg width="20" height="19" viewBox="0 0 20 19" fill="none" xmlns="http://www.w3.org/2000/svg">
<g id="Iconly/Bold/Category">
<g id="Category">
<path id="Category_2" fill-rule="evenodd" clip-rule="evenodd" d="M3.78335 2.43786H6.60002C7.77502 2.43786 8.71669 3.29268 8.71669 4.3415V6.87549C8.71669 7.931 7.77502 8.77839 6.60002 8.77839H3.78335C2.61669 8.77839 1.66669 7.931 1.66669 6.87549V4.3415C1.66669 3.29268 2.61669 2.43786 3.78335 2.43786ZM3.78335 10.9635H6.60002C7.77502 10.9635 8.71669 11.8117 8.71669 12.8672V15.4012C8.71669 16.4492 7.77502 17.3041 6.60002 17.3041H3.78335C2.61669 17.3041 1.66669 16.4492 1.66669 15.4012V12.8672C1.66669 11.8117 2.61669 10.9635 3.78335 10.9635ZM16.2168 2.43786H13.4001C12.2251 2.43786 11.2834 3.29268 11.2834 4.3415V6.87549C11.2834 7.931 12.2251 8.77839 13.4001 8.77839H16.2168C17.3834 8.77839 18.3334 7.931 18.3334 6.87549V4.3415C18.3334 3.29268 17.3834 2.43786 16.2168 2.43786ZM13.4001 10.9635H16.2168C17.3834 10.9635 18.3334 11.8117 18.3334 12.8672V15.4012C18.3334 16.4492 17.3834 17.3041 16.2168 17.3041H13.4001C12.2251 17.3041 11.2834 16.4492 11.2834 15.4012V12.8672C11.2834 11.8117 12.2251 10.9635 13.4001 10.9635Z" fill="currentColor"/>
</g>
</g>
</svg>
