<svg width="20" height="20" viewBox="0 0 20 20" fill="none" xmlns="http://www.w3.org/2000/svg">
<path d="M2.5 3.33334C1.11929 3.33334 0 4.45262 0 5.83334V6.25C0 6.48012 0.187482 6.6694 0.415839 6.64098C1.9243 6.45326 3.11993 5.25764 3.30765 3.74918C3.33607 3.52082 3.14679 3.33334 2.91667 3.33334H2.5Z" fill="currentColor"/>
<path fill-rule="evenodd" clip-rule="evenodd" d="M5.41667 3.33334C5.18655 3.33334 5.00181 3.52054 4.9829 3.74988C4.78255 6.17906 2.84572 8.11589 0.416541 8.31623C0.187201 8.33515 0 8.51988 0 8.75V11.25C0 11.4801 0.187201 11.6649 0.416541 11.6838C2.84572 11.8841 4.78255 13.8209 4.9829 16.2501C5.00181 16.4795 5.18655 16.6667 5.41667 16.6667H14.5833C14.8135 16.6667 14.9982 16.4795 15.0171 16.2501C15.2174 13.8209 17.1543 11.8841 19.5835 11.6838C19.8128 11.6649 20 11.4801 20 11.25V8.75C20 8.51988 19.8128 8.33515 19.5835 8.31623C17.1543 8.11589 15.2174 6.17906 15.0171 3.74988C14.9982 3.52054 14.8135 3.33334 14.5833 3.33334H5.41667ZM10 12.5C11.3807 12.5 12.5 11.3807 12.5 10C12.5 8.61929 11.3807 7.5 10 7.5C8.61929 7.5 7.5 8.61929 7.5 10C7.5 11.3807 8.61929 12.5 10 12.5Z" fill="currentColor"/>
<path d="M20 5.83334V6.25C20 6.48012 19.8125 6.6694 19.5842 6.64098C18.0757 6.45326 16.8801 5.25764 16.6924 3.74918C16.6639 3.52082 16.8532 3.33334 17.0833 3.33334H17.5C18.8807 3.33334 20 4.45262 20 5.83334Z" fill="currentColor"/>
<path d="M20 13.75C20 13.5199 19.8125 13.3306 19.5842 13.359C18.0757 13.5467 16.8801 14.7424 16.6924 16.2508C16.6639 16.4792 16.8532 16.6667 17.0833 16.6667H17.5C18.8807 16.6667 20 15.5474 20 14.1667V13.75Z" fill="currentColor"/>
<path d="M0 14.1667V13.75C0 13.5199 0.187482 13.3306 0.415839 13.359C1.9243 13.5467 3.11993 14.7424 3.30765 16.2508C3.33607 16.4792 3.14679 16.6667 2.91667 16.6667H2.5C1.11929 16.6667 0 15.5474 0 14.1667Z" fill="currentColor"/>
</svg>
