<svg width="20" height="20" viewBox="0 0 20 20" fill="none" xmlns="http://www.w3.org/2000/svg">
<path d="M14.9868 12.0887C15.0056 12.4006 15.3312 12.611 15.5959 12.4449C17.2402 11.4133 18.3333 9.58432 18.3333 7.5C18.3333 4.27834 15.7217 1.66666 12.5 1.66666C10.4157 1.66666 8.58669 2.75983 7.55508 4.40411C7.38903 4.66878 7.59941 4.99442 7.91129 5.01317C11.6412 5.2374 14.7625 8.36208 14.9868 12.0887Z" fill="currentColor"/>
<path d="M13.3334 12.5C13.3334 15.7217 10.7217 18.3333 7.50002 18.3333C4.27836 18.3333 1.66669 15.7217 1.66669 12.5C1.66669 9.27834 4.27836 6.66666 7.50002 6.66666C10.7217 6.66666 13.3334 9.27834 13.3334 12.5Z" fill="currentColor"/>
</svg>
