<svg width="24" height="24" viewBox="0 0 24 24" fill="none" xmlns="http://www.w3.org/2000/svg">
<path d="M14.25 7.125H5.9375V5.9375C5.9375 3.97302 7.53552 2.375 9.5 2.375C11.4645 2.375 13.0625 3.97302 13.0625 5.9375H15.4375C15.4375 2.66375 12.7737 0 9.5 0C6.22625 0 3.5625 2.66375 3.5625 5.9375V7.45529C2.85604 7.86719 2.375 8.62467 2.375 9.5V16.625C2.375 17.9348 3.44016 19 4.75 19H14.25C15.5598 19 16.625 17.9348 16.625 16.625V9.5C16.625 8.19015 15.5598 7.125 14.25 7.125ZM10.6875 13.7877V15.4375H8.3125V13.7877C7.95054 13.4617 7.71875 12.9942 7.71875 12.4688C7.71875 11.485 8.51624 10.6875 9.5 10.6875C10.4838 10.6875 11.2812 11.485 11.2812 12.4688C11.2812 12.9942 11.0495 13.4617 10.6875 13.7877Z" fill="#333333"/>
</svg>
