<?xml version="1.0" standalone="no"?>
<!DOCTYPE svg PUBLIC "-//W3C//DTD SVG 20010904//EN"
 "http://www.w3.org/TR/2001/REC-SVG-20010904/DTD/svg10.dtd">
<svg version="1.0" xmlns="http://www.w3.org/2000/svg"
 width="64.000000pt" height="64.000000pt" viewBox="0 0 64.000000 64.000000"
 preserveAspectRatio="xMidYMid meet">

<g transform="translate(0.000000,64.000000) scale(0.100000,-0.100000)"
fill="#000000" stroke="none">
<path d="M0 320 l0 -230 320 0 320 0 0 230 0 230 -320 0 -320 0 0 -230z m609
183 c0 -11 -61 -65 -144 -131 l-144 -113 -146 116 c-80 63 -145 122 -145 130
0 13 39 15 290 15 270 0 290 -1 289 -17z m-419 -172 c69 -56 127 -101 130
-101 3 0 68 50 144 110 77 61 141 110 143 110 1 0 3 -74 3 -165 l0 -165 -290
0 -290 0 0 165 c0 155 1 165 18 156 9 -6 73 -55 142 -110z"/>
</g>
</svg>
