<svg width="18" height="19" viewBox="0 0 18 19" fill="none" xmlns="http://www.w3.org/2000/svg">
<path fill-rule="evenodd" clip-rule="evenodd" d="M15.7107 7.65921C15.8864 8.43632 16.2907 9.15847 16.8827 9.75247C17.2507 10.2406 17.464 10.8075 17.5 11.3938V11.5762C17.5055 12.3672 17.1877 13.1333 16.6053 13.7328C15.8673 14.4368 14.8658 14.8792 13.7872 14.9777C10.6007 15.3424 7.3744 15.3424 4.18782 14.9777C3.09657 14.8867 2.08102 14.4437 1.33394 13.7328C0.76985 13.1276 0.474049 12.3608 0.501927 11.5762V11.3938C0.53684 10.8097 0.743477 10.2439 1.10133 9.75247C1.69597 9.15792 2.106 8.43657 2.2912 7.65921C2.31804 7.3579 2.31804 7.05462 2.31804 6.75133C2.31804 6.44805 2.31804 6.14476 2.34487 5.84346C2.68484 2.94936 5.81606 0.951241 8.94728 0.951241H9.03674C12.1322 0.951241 15.326 2.94936 15.657 5.84346C15.6839 6.1408 15.6839 6.44408 15.6839 6.74836C15.6839 7.05263 15.6839 7.3579 15.7107 7.65921ZM10.164 16.1432C10.6613 16.1563 11.1496 16.2645 11.5954 16.4604H11.6222C11.9947 16.7314 12.0579 17.2152 11.7654 17.5546C11.2326 18.2346 10.3802 18.6634 9.44825 18.7201C8.49079 18.822 7.52659 18.5856 6.76434 18.062C6.37233 17.8222 6.11758 17.443 6.06653 17.0233C6.06653 16.5793 6.53174 16.3731 6.96116 16.2859C7.46413 16.1914 7.97684 16.1436 8.49099 16.1432H10.164Z" fill="#868AA5"/>
</svg>
